<?xml version="1.0" encoding="UTF-8" standalone="no"?>
<svg width="256px" height="256px" viewBox="0 0 256 256" version="1.1" xmlns="http://www.w3.org/2000/svg" xmlns:xlink="http://www.w3.org/1999/xlink" xmlns:sketch="http://www.bohemiancoding.com/sketch/ns">
    <!-- Generator: Sketch 3.0.4 (8054) - http://www.bohemiancoding.com/sketch -->
    <title>erinio-logo-line-white</title>
    <desc>Created with Sketch.</desc>
    <defs></defs>
    <g id="Page-1" stroke="none" stroke-width="1" fill="none" fill-rule="evenodd" sketch:type="MSPage">
        <g id="logo-line-white" sketch:type="MSLayerGroup" transform="translate(2.000000, 2.000000)">
            <circle id="Oval-1" stroke="#FFFFFF" stroke-width="4" sketch:type="MSShapeGroup" cx="126" cy="126" r="126"></circle>
            <path d="M27.2756479,85.326674 C28.7902266,85.4092663 29.1706263,86.2451404 29.1706263,86.2451404 C29.1706263,86.2451404 31.4261676,93.9166166 38.8552916,95.4082073 C46.6389106,96.9709722 74.8088553,95.4082073 74.8088553,95.4082073 C74.8088553,95.4082073 94.2559395,96.1101512 106.048596,100.990281 C117.841253,105.87041 124.169546,115.735421 124.169546,115.735421 C124.169546,115.735421 127.59073,101.458173 129.808855,93.8844492 C132.22248,85.6431981 138.064795,68.2904968 138.064795,68.2904968 C138.064795,68.2904968 138.648536,66.1845274 139.200054,65.6533477 C139.561243,65.3054777 140.802916,65.6533477 140.802916,65.6533477 C140.802916,65.6533477 142.108623,65.8098983 142.675756,66.0037797 C143.220034,66.1898479 144.137149,66.7931965 144.137149,66.7931965 C144.137149,66.7931965 144.516574,67.2714779 144.559935,67.5537257 C144.614126,67.9064671 144.429806,68.6981641 144.429806,68.6981641 C144.429806,68.6981641 138.964448,86.2705871 136.410907,95.0467064 C133.878955,103.748629 129.449784,120.302916 129.449784,120.302916 C129.449784,120.302916 131.038332,120.151266 132.150108,119.548326 C134.06425,118.510247 138.25108,116.209233 138.25108,116.209233 C138.25108,116.209233 143.403585,112.318211 145.906587,110.217063 C148.45902,108.07442 152.958423,104.25594 152.958423,104.25594 C152.958423,104.25594 158.114684,100.456812 164.680886,96.889849 C170.930321,93.4949635 178.470402,90.3749969 183.538877,88.449784 C193.999412,84.4764471 215.980562,79.7138229 215.980562,79.7138229 C215.980562,79.7138229 218.969061,79.511867 220.319384,79.7702484 C221.402916,79.9775797 223.282127,81.1109611 223.282127,81.1109611 C223.282127,81.1109611 224.62608,81.8987583 224.267819,83.9260259 C223.909557,85.9532936 222.462473,86.4708423 222.462473,86.4708423 C222.462473,86.4708423 221.762959,86.7241012 220.605562,86.7297516 C219.448164,86.735402 218.531587,86.437095 218.531587,86.437095 C218.531587,86.437095 215.352637,86.1392997 213.887149,86.2346112 C210.007829,86.4613931 207.086933,87.1814255 207.086933,87.1814255 C207.086933,87.1814255 193.181041,90.9976948 186.49946,93.5696544 C179.855807,96.1270145 167.111231,102.569384 167.111231,102.569384 C167.111231,102.569384 160.409725,106.289715 157.311825,108.783747 C154.210391,111.280626 151.395788,113.415227 148.513229,117.542117 C147.572624,118.981102 146.349352,120.61744 147.045356,125.210583 C147.741361,129.803726 150.972732,133.49973 150.972732,133.49973 C150.972732,133.49973 155.480251,137.732927 159.306965,139.209503 C163.677695,140.895994 175.446814,143.550756 175.446814,143.550756 C175.446814,143.550756 187.679266,145.703564 198.352592,150.558585 C203.29419,152.457219 210.475432,156.740011 210.475432,156.740011 C210.475432,156.740011 216.899568,160.386069 220.319384,164.736497 C223.192225,169.546432 223.109071,172.661177 223.109071,172.661177 C223.109071,172.661177 223.74865,174.509985 223.221382,176.049946 C222.694114,177.589907 221.459503,177.937365 221.459503,177.937365 C221.459503,177.937365 220.33841,178.262872 219.814795,178.32802 C219.291794,178.393091 218.319654,178.328024 218.319654,178.328024 C218.319654,178.328024 217.310638,178.188165 216.980292,177.897138 C216.504663,177.478122 215.901728,176.197894 215.901728,176.197894 L215.483801,174.574244 C215.483801,174.574244 214.554536,170.918462 212.046706,167.886609 C209.538877,164.854756 205.353672,162.337739 205.353672,162.337739 C205.353672,162.337739 196.916847,157.390929 187.383369,154.535903 C180.767612,152.370537 166.342873,149.788607 166.342873,149.788607 C166.342873,149.788607 158.580724,148.177646 150.478402,141.817761 C146.548593,138.646289 140.802916,129.177106 140.802916,129.177106 C140.802916,129.177106 136.357997,137.522502 134.184395,141.817761 C132.174412,145.789691 128.25216,153.978672 128.25216,153.978672 C128.25216,153.978672 126.51052,157.638949 125.530238,159.846648 C124.714264,161.684306 122.863391,166.114741 122.863391,166.114741 C122.863391,166.114741 122.197774,168.139177 121.950054,169.162793 C121.74763,169.999239 121.512959,171.694924 121.512959,171.694924 C121.512959,171.694924 120.683315,174.652348 118.067765,174.57424 C115.452214,174.496132 114.74622,172.162797 114.74622,172.162797 L114.402268,170.25459 L114.402268,168.789957 C114.402268,168.789957 115.06441,159.228966 115.545356,154.535903 C115.94382,150.647703 117.040497,143.046166 117.040497,143.046166 C117.040497,143.046166 103.822894,154.445734 93.7462203,160.178452 C88.1062532,163.85867 76.7419006,168.890389 76.7419006,168.890389 C76.7419006,168.890389 67.0184703,173.552034 62.2068035,175.678726 C57.7063753,177.667854 48.8056156,181.237851 48.8056156,181.237851 C48.8056156,181.237851 47.3565212,182.483665 47.0693844,183.102588 C46.7777775,183.731146 47.0693844,184.980292 47.0693844,184.980292 C47.0693844,184.980292 45.7663136,185.895701 44.788067,185.917653 C42.2656587,186.041577 40.4762419,185.12824 40.4762419,185.12824 C40.4762419,185.12824 39.737041,183.755396 39.137149,181.687905 C38.537257,179.620414 38.6968143,177.731641 38.6968143,177.731641 L43.825324,174.924672 L49.9100972,172.434395 C49.9100972,172.434395 65.399838,166.378236 77.963013,160.178452 C90.5261879,153.978668 102.833963,145.485421 102.833963,145.485421 C102.833963,145.485421 110.467692,139.989966 113.601242,136.9487 C116.169726,134.455858 119.940065,128.883099 119.940065,128.883099 L119.771328,128.087203 C119.771328,128.087203 111.779698,131.149838 105.450324,132.675486 C97.6306812,134.560352 88.5685745,136.096652 88.5685745,136.096652 C88.5685745,136.096652 85.4136445,136.363257 83.7937365,136.096652 C82.7829749,135.930301 80.6765659,134.797786 80.6765659,134.797786 C80.6765659,134.797786 79.4916307,133.49973 79.1395788,131.522678 C78.787527,129.545627 79.8903888,129.00054 79.8903888,129.00054 C79.8903888,129.00054 82.2063701,127.870995 83.7937365,127.421436 C85.0658914,127.061149 88.4689525,126.571004 88.4689525,126.571004 C88.4689525,126.571004 88.8495175,126.549183 89.571627,127.318193 C90.2937365,128.087203 90.8274838,127.799406 90.8274838,127.799406 C90.8274838,127.799406 98.4346633,127.034321 105.450324,125.713975 C112.465985,124.393629 119.5027,122.544006 119.5027,122.544006 C119.5027,122.544006 117.721652,115.735421 111.343952,110.87392 C104.966253,106.012419 94.087473,103.838823 94.087473,103.838823 C94.087473,103.838823 86.62473,102.569385 79.8903888,102.212743 C73.1560475,101.856102 59.9846112,101.850972 59.9846112,101.850972 C59.9846112,101.850972 48.7267114,102.030023 44.3021058,101.850972 C41.0877625,101.720897 37.0677646,100.923596 37.0677646,100.923596 C37.0677646,100.923596 31.3820096,99.5535256 29.1706263,98.0067496 C26.9090075,96.4248358 23.6487581,91.537527 23.6487581,91.537527 C23.6487581,91.537527 23.0828834,89.2651189 23.6487581,87.1814256 C24.0604752,85.9902808 24.9028078,85.7861771 24.9028078,85.7861771 C24.9028078,85.7861771 25.7610692,85.2440817 27.2756479,85.326674 Z M132.407667,134.171976 C134.529264,129.279219 138.305886,121.847732 138.305886,121.847732 C138.305886,121.847732 135.128396,123.328908 133.298461,123.970032 C132.188601,124.358876 128.888769,125.607991 128.888769,125.607991 C128.888769,125.607991 128.057471,126.093846 127.838553,126.492171 C127.635134,126.862295 127.62176,127.980832 127.62176,127.980832 C127.62176,127.980832 126.006341,133.886065 125.178186,137.896598 C124.301697,142.141195 122.507829,152.12581 122.507829,152.12581 C122.507829,152.12581 122.979815,152.983489 123.481911,152.849352 C123.779851,152.769756 124.907937,151.484611 124.907937,151.484611 C124.907937,151.484611 130.262525,139.119032 132.407667,134.171976 Z" id="Path-1" fill="#FFFFFF" sketch:type="MSShapeGroup" transform="translate(123.926566, 125.723542) rotate(3.000000) translate(-123.926566, -125.723542) "></path>
        </g>
    </g>
</svg>