<?xml version="1.0" encoding="UTF-8" standalone="no"?>
<svg width="256px" height="256px" viewBox="0 0 256 256" version="1.1" xmlns="http://www.w3.org/2000/svg" xmlns:xlink="http://www.w3.org/1999/xlink" xmlns:sketch="http://www.bohemiancoding.com/sketch/ns">
    <!-- Generator: Sketch 3.0.4 (8054) - http://www.bohemiancoding.com/sketch -->
    <title>erinio-logo-fill-white</title>
    <desc>Created with Sketch.</desc>
    <defs></defs>
    <g id="Page-1" stroke="none" stroke-width="1" fill="none" fill-rule="evenodd" sketch:type="MSPage">
        <g id="logo-fill-white" sketch:type="MSLayerGroup" fill="#FFFFFF">
            <path d="M128,256 C198.692448,256 256,198.692448 256,128 C256,57.307552 198.692448,0 128,0 C57.307552,0 0,57.307552 0,128 C0,198.692448 57.307552,256 128,256 Z M31.5223133,82.3237183 C33.0304938,82.4854643 33.366626,83.3401015 33.366626,83.3401015 C33.366626,83.3401015 35.2175821,91.1191101 42.5584608,92.997467 C50.2496239,94.9654533 78.4627514,94.8791311 78.4627514,94.8791311 C78.4627514,94.8791311 97.8464472,96.5978947 109.367536,102.088516 C120.888625,107.579138 126.691951,117.761826 126.691951,117.761826 C126.691951,117.761826 130.85566,103.683195 133.467123,96.2359389 C136.308754,88.1323014 143.051232,71.1091445 143.051232,71.1091445 C143.051232,71.1091445 143.744392,69.036612 144.322953,68.5350245 C144.701854,68.2065344 145.923618,68.6189118 145.923618,68.6189118 C145.923618,68.6189118 147.219343,68.8435832 147.775552,69.0668803 C148.309346,69.2811789 149.193627,69.9316987 149.193627,69.9316987 C149.193627,69.9316987 149.547501,70.4291822 149.576031,70.7133125 C149.611687,71.0684066 149.386184,71.8493721 149.386184,71.8493721 C149.386184,71.8493721 143.008647,89.111678 139.999299,97.7421279 C137.015394,106.299613 131.725908,122.599407 131.725908,122.599407 C131.725908,122.599407 133.320216,122.531103 134.462024,121.987176 C136.427871,121.050698 140.729389,118.971959 140.729389,118.971959 C140.729389,118.971959 146.078473,115.355931 148.688011,113.388659 C151.349083,111.382537 156.042164,107.80477 156.042164,107.80477 C156.042164,107.80477 161.390189,104.280707 168.134072,101.062281 C174.552618,97.9991182 182.245652,95.2780447 187.407938,93.6207337 C198.062086,90.2003042 220.262367,86.5946115 220.262367,86.5946115 C220.262367,86.5946115 223.257341,86.5493383 224.592291,86.8780361 C225.663487,87.141791 227.480806,88.3719694 227.480806,88.3719694 C227.480806,88.3719694 228.781687,89.229024 228.317817,91.2347634 C227.853948,93.2405028 226.381761,93.6816077 226.381761,93.6816077 C226.381761,93.6816077 225.669951,93.8979098 224.513844,93.8429789 C223.357737,93.7880481 222.458028,93.44218 222.458028,93.44218 C222.458028,93.44218 219.299019,92.9784194 217.830552,92.9969026 C213.94468,93.0203457 210.990103,93.5865235 210.990103,93.5865235 C210.990103,93.5865235 196.90354,96.6697845 190.096511,98.8885325 C183.32812,101.094686 170.263843,106.861227 170.263843,106.861227 C170.263843,106.861227 163.376814,110.225729 160.152632,112.554212 C156.924772,114.885352 154.00231,116.869723 150.907717,120.840096 C149.89309,122.227881 148.585855,123.797956 149.040519,128.42123 C149.495183,133.044504 152.528692,136.90456 152.528692,136.90456 C152.528692,136.90456 156.808485,141.36786 160.552677,143.042688 C164.829153,144.955614 176.443203,148.222686 176.443203,148.222686 C176.443203,148.222686 188.546221,151.01274 198.950828,156.419707 C203.786286,158.574362 210.733543,163.227121 210.733543,163.227121 C210.733543,163.227121 216.958055,167.204396 220.145501,171.727841 C222.762672,176.681538 222.516619,179.787662 222.516619,179.787662 C222.516619,179.787662 223.058562,181.667409 222.451422,183.177665 C221.844281,184.68792 220.593177,184.970287 220.593177,184.970287 C220.593177,184.970287 219.456585,185.236674 218.930278,185.274329 C218.404588,185.31194 217.437186,185.196084 217.437186,185.196084 C217.437186,185.196084 216.436872,185.003609 216.12221,184.695692 C215.669162,184.252357 215.134056,182.942329 215.134056,182.942329 L214.801677,181.299031 C214.801677,181.299031 214.065014,177.599626 211.719296,174.440678 C209.373579,171.28173 205.32584,168.549126 205.32584,168.549126 C205.32584,168.549126 197.159473,163.167546 187.788482,159.817489 C181.295117,157.308849 167.025274,153.975525 167.025274,153.975525 C167.025274,153.975525 159.358074,151.960532 151.599707,145.18532 C147.841266,141.812524 142.599042,132.055613 142.599042,132.055613 C142.599042,132.055613 137.723451,140.156943 135.328031,144.332557 C133.112928,148.19385 128.767473,156.166333 128.767473,156.166333 C128.767473,156.166333 126.836656,159.730444 125.742174,161.883813 C124.831144,163.676248 122.750936,168.003744 122.750936,168.003744 C122.750936,168.003744 121.98028,169.99057 121.679328,170.999818 C121.433405,171.824524 121.11031,173.505604 121.11031,173.505604 C121.11031,173.505604 120.127024,176.415554 117.519146,176.200666 C114.911268,175.985777 114.328359,173.618691 114.328359,173.618691 L114.084746,171.695098 L114.161399,170.232473 C114.161399,170.232473 115.323017,160.719239 116.04892,156.057778 C116.65033,152.195761 118.143338,144.662037 118.143338,144.662037 C118.143338,144.662037 104.347242,155.354227 93.9843508,160.551715 C88.1595054,163.931717 76.5473874,168.361776 76.5473874,168.361776 C76.5473874,168.361776 66.593311,172.508147 61.6769359,174.380101 C57.0785725,176.13097 48.0031718,179.230244 48.0031718,179.230244 C48.0031718,179.230244 46.4908624,180.398511 46.1717273,181.001558 C45.8476238,181.613993 46.0734559,182.876688 46.0734559,182.876688 C46.0734559,182.876688 44.724262,183.722646 43.7462072,183.69337 C41.2207702,183.685111 39.481606,182.679375 39.481606,182.679375 C39.481606,182.679375 38.8152673,181.269726 38.3244015,179.173673 C37.8335357,177.07762 38.0917251,175.199786 38.0917251,175.199786 L43.3601118,172.665068 L49.566877,170.496657 C49.566877,170.496657 65.3523446,165.259468 78.2227738,159.725686 C91.0932029,154.191904 103.828613,146.354437 103.828613,146.354437 C103.828613,146.354437 111.73949,141.266031 115.027913,138.392931 C117.723343,136.037929 121.78017,130.670132 121.78017,130.670132 L121.653318,129.866495 C121.653318,129.866495 113.512354,132.506684 107.111808,133.698987 C99.2042359,135.172021 90.0741448,136.231942 90.0741448,136.231942 C90.0741448,136.231942 86.9095855,136.333065 85.3058505,135.982046 C84.3051803,135.763024 82.2609293,134.52182 82.2609293,134.52182 C82.2609293,134.52182 81.145553,133.163528 80.8974545,131.170761 C80.649356,129.177994 81.779234,128.691374 81.779234,128.691374 C81.779234,128.691374 84.1511572,127.684585 85.7598762,127.31872 C87.0491436,127.025506 90.4731932,126.714135 90.4731932,126.714135 C90.4731932,126.714135 90.8543786,126.712261 91.5352517,127.518009 C92.2161247,128.323758 92.7642026,128.064289 92.7642026,128.064289 C92.7642026,128.064289 100.400998,127.698382 107.476146,126.747016 C114.551293,125.795651 121.675167,124.316837 121.675167,124.316837 C121.675167,124.316837 120.252894,117.42437 114.138366,112.235748 C108.023838,107.047126 97.2737241,104.307158 97.2737241,104.307158 C97.2737241,104.307158 89.8876459,102.648889 83.181199,101.940288 C76.4747521,101.231688 63.3216352,100.537225 63.3216352,100.537225 C63.3216352,100.537225 52.0697931,100.126837 47.6606222,99.7164663 C44.4574915,99.4183441 40.4847304,98.4117452 40.4847304,98.4117452 C40.4847304,98.4117452 34.8784716,96.7459828 32.7510709,95.0855918 C30.5753425,93.387482 27.5753431,88.3362428 27.5753431,88.3362428 C27.5753431,88.3362428 27.1291726,86.0373334 27.8033239,83.9861113 C28.2768164,82.8181465 29.1286766,82.6584068 29.1286766,82.6584068 C29.1286766,82.6584068 30.0141328,82.1619723 31.5223133,82.3237183 Z M133.953887,136.604265 C136.328644,131.829249 140.489023,124.605599 140.489023,124.605599 C140.489023,124.605599 137.23837,125.918448 135.377389,126.462923 C134.2487,126.793148 130.888016,127.867851 130.888016,127.867851 C130.888016,127.867851 130.032429,128.309533 129.792965,128.695855 C129.570454,129.054825 129.498559,130.17113 129.498559,130.17113 C129.498559,130.17113 127.576297,135.983726 126.539382,139.94542 C125.44195,144.138328 123.127986,154.015376 123.127986,154.015376 C123.127986,154.015376 123.554437,154.896581 124.062866,154.788906 C124.364563,154.725012 125.558362,153.500668 125.558362,153.500668 C125.558362,153.500668 131.552777,141.432273 133.953887,136.604265 Z" id="Oval-1" sketch:type="MSShapeGroup"></path>
        </g>
    </g>
</svg>